<?xml version="1.0" encoding="utf-8"?>
<!-- Generator: Adobe Illustrator 22.0.0, SVG Export Plug-In . SVG Version: 6.00 Build 0)  -->
<svg version="1.1" id="Layer_1" xmlns="http://www.w3.org/2000/svg" xmlns:xlink="http://www.w3.org/1999/xlink" x="0px" y="0px" width="13" height="13"
	 viewBox="0 0 40 40" style="enable-background:new 0 0 40 40;" xml:space="preserve">
<style type="text/css">
	.st0{clip-path:url(#SVGID_2_);fill:#D83532;}
	.st1{clip-path:url(#SVGID_2_);fill:#D93733;}
	.st2{clip-path:url(#SVGID_2_);fill:#D93835;}
	.st3{clip-path:url(#SVGID_2_);fill:#D93936;}
	.st4{clip-path:url(#SVGID_2_);fill:#DA3A37;}
	.st5{clip-path:url(#SVGID_2_);fill:#DC3A38;}
	.st6{clip-path:url(#SVGID_2_);fill:#DD3B39;}
	.st7{clip-path:url(#SVGID_2_);fill:#DC3C3A;}
	.st8{clip-path:url(#SVGID_2_);fill:#DD3D3B;}
	.st9{clip-path:url(#SVGID_2_);fill:#DF3F3D;}
	.st10{clip-path:url(#SVGID_2_);fill:#E0403E;}
	.st11{clip-path:url(#SVGID_2_);fill:#E04140;}
	.st12{clip-path:url(#SVGID_2_);fill:#E14241;}
	.st13{clip-path:url(#SVGID_2_);fill:#E14342;}
	.st14{clip-path:url(#SVGID_2_);fill:#E24443;}
	.st15{clip-path:url(#SVGID_2_);fill:#E34444;}
	.st16{clip-path:url(#SVGID_2_);fill:#E34645;}
	.st17{clip-path:url(#SVGID_2_);fill:#E34746;}
	.st18{clip-path:url(#SVGID_2_);fill:#E44847;}
	.st19{clip-path:url(#SVGID_2_);fill:#E54848;}
	.st20{clip-path:url(#SVGID_2_);fill:#E54949;}
	.st21{clip-path:url(#SVGID_2_);fill:#E64A4A;}
	.st22{clip-path:url(#SVGID_2_);fill:#E84B4B;}
	.st23{clip-path:url(#SVGID_4_);fill:#D83532;}
	.st24{clip-path:url(#SVGID_4_);fill:#D93733;}
	.st25{clip-path:url(#SVGID_4_);fill:#D93835;}
	.st26{clip-path:url(#SVGID_4_);fill:#D93936;}
	.st27{clip-path:url(#SVGID_4_);fill:#DA3A37;}
	.st28{clip-path:url(#SVGID_4_);fill:#DC3A38;}
	.st29{clip-path:url(#SVGID_4_);fill:#DD3B39;}
	.st30{clip-path:url(#SVGID_4_);fill:#DC3C3A;}
	.st31{clip-path:url(#SVGID_4_);fill:#DD3D3B;}
	.st32{clip-path:url(#SVGID_4_);fill:#DF3F3D;}
	.st33{clip-path:url(#SVGID_4_);fill:#E0403E;}
	.st34{clip-path:url(#SVGID_4_);fill:#E04140;}
	.st35{clip-path:url(#SVGID_4_);fill:#E14241;}
	.st36{clip-path:url(#SVGID_4_);fill:#E14342;}
	.st37{clip-path:url(#SVGID_4_);fill:#E24443;}
	.st38{clip-path:url(#SVGID_4_);fill:#E34444;}
	.st39{clip-path:url(#SVGID_4_);fill:#E34645;}
	.st40{clip-path:url(#SVGID_4_);fill:#E34746;}
	.st41{clip-path:url(#SVGID_4_);fill:#E44847;}
	.st42{clip-path:url(#SVGID_4_);fill:#E54848;}
	.st43{clip-path:url(#SVGID_4_);fill:#E54949;}
	.st44{clip-path:url(#SVGID_4_);fill:#E64A4A;}
	.st45{clip-path:url(#SVGID_4_);fill:#E84B4B;}
	.st46{clip-path:url(#SVGID_6_);fill:#D83532;}
	.st47{clip-path:url(#SVGID_6_);fill:#D93733;}
	.st48{clip-path:url(#SVGID_6_);fill:#D93835;}
	.st49{clip-path:url(#SVGID_6_);fill:#D93936;}
	.st50{clip-path:url(#SVGID_6_);fill:#DA3A37;}
	.st51{clip-path:url(#SVGID_6_);fill:#DC3A38;}
	.st52{clip-path:url(#SVGID_6_);fill:#DD3B39;}
	.st53{clip-path:url(#SVGID_6_);fill:#DC3C3A;}
	.st54{clip-path:url(#SVGID_6_);fill:#DD3D3B;}
	.st55{clip-path:url(#SVGID_6_);fill:#DF3F3D;}
	.st56{clip-path:url(#SVGID_6_);fill:#E0403E;}
	.st57{clip-path:url(#SVGID_6_);fill:#E04140;}
	.st58{clip-path:url(#SVGID_6_);fill:#E14241;}
	.st59{clip-path:url(#SVGID_6_);fill:#E14342;}
	.st60{clip-path:url(#SVGID_6_);fill:#E24443;}
	.st61{clip-path:url(#SVGID_6_);fill:#E34444;}
	.st62{clip-path:url(#SVGID_6_);fill:#E34645;}
	.st63{clip-path:url(#SVGID_6_);fill:#E34746;}
	.st64{clip-path:url(#SVGID_6_);fill:#E44847;}
	.st65{clip-path:url(#SVGID_6_);fill:#E54848;}
	.st66{clip-path:url(#SVGID_6_);fill:#E54949;}
	.st67{clip-path:url(#SVGID_6_);fill:#E64A4A;}
	.st68{clip-path:url(#SVGID_6_);fill:#E84B4B;}
	.st69{clip-path:url(#SVGID_8_);fill:#D83532;}
	.st70{clip-path:url(#SVGID_8_);fill:#D93733;}
	.st71{clip-path:url(#SVGID_8_);fill:#D93835;}
	.st72{clip-path:url(#SVGID_8_);fill:#D93936;}
	.st73{clip-path:url(#SVGID_8_);fill:#DA3A37;}
	.st74{clip-path:url(#SVGID_8_);fill:#DC3A38;}
	.st75{clip-path:url(#SVGID_8_);fill:#DD3B39;}
	.st76{clip-path:url(#SVGID_8_);fill:#DC3C3A;}
	.st77{clip-path:url(#SVGID_8_);fill:#DD3D3B;}
	.st78{clip-path:url(#SVGID_8_);fill:#DF3F3D;}
	.st79{clip-path:url(#SVGID_8_);fill:#E0403E;}
	.st80{clip-path:url(#SVGID_8_);fill:#E04140;}
	.st81{clip-path:url(#SVGID_8_);fill:#E14241;}
	.st82{clip-path:url(#SVGID_8_);fill:#E14342;}
	.st83{clip-path:url(#SVGID_8_);fill:#E24443;}
	.st84{clip-path:url(#SVGID_8_);fill:#E34444;}
	.st85{clip-path:url(#SVGID_8_);fill:#E34645;}
	.st86{clip-path:url(#SVGID_8_);fill:#E34746;}
	.st87{clip-path:url(#SVGID_8_);fill:#E44847;}
	.st88{clip-path:url(#SVGID_8_);fill:#E54848;}
	.st89{clip-path:url(#SVGID_8_);fill:#E54949;}
	.st90{clip-path:url(#SVGID_8_);fill:#E64A4A;}
	.st91{clip-path:url(#SVGID_8_);fill:#E84B4B;}
	.st92{clip-path:url(#SVGID_10_);fill:#D83532;}
	.st93{clip-path:url(#SVGID_10_);fill:#D93733;}
	.st94{clip-path:url(#SVGID_10_);fill:#D93835;}
	.st95{clip-path:url(#SVGID_10_);fill:#D93936;}
	.st96{clip-path:url(#SVGID_10_);fill:#DA3A37;}
	.st97{clip-path:url(#SVGID_10_);fill:#DC3A38;}
	.st98{clip-path:url(#SVGID_10_);fill:#DD3B39;}
	.st99{clip-path:url(#SVGID_10_);fill:#DC3C3A;}
	.st100{clip-path:url(#SVGID_10_);fill:#DD3D3B;}
	.st101{clip-path:url(#SVGID_10_);fill:#DF3F3D;}
	.st102{clip-path:url(#SVGID_10_);fill:#E0403E;}
	.st103{clip-path:url(#SVGID_10_);fill:#E04140;}
	.st104{clip-path:url(#SVGID_10_);fill:#E14241;}
	.st105{clip-path:url(#SVGID_10_);fill:#E14342;}
	.st106{clip-path:url(#SVGID_10_);fill:#E24443;}
	.st107{clip-path:url(#SVGID_10_);fill:#E34444;}
	.st108{clip-path:url(#SVGID_10_);fill:#E34645;}
	.st109{clip-path:url(#SVGID_10_);fill:#E34746;}
	.st110{clip-path:url(#SVGID_10_);fill:#E44847;}
	.st111{clip-path:url(#SVGID_10_);fill:#E54848;}
	.st112{clip-path:url(#SVGID_10_);fill:#E54949;}
	.st113{clip-path:url(#SVGID_10_);fill:#E64A4A;}
	.st114{clip-path:url(#SVGID_10_);fill:#E84B4B;}
	.st115{clip-path:url(#SVGID_12_);fill:#D83532;}
	.st116{clip-path:url(#SVGID_12_);fill:#D93733;}
	.st117{clip-path:url(#SVGID_12_);fill:#D93835;}
	.st118{clip-path:url(#SVGID_12_);fill:#D93936;}
	.st119{clip-path:url(#SVGID_12_);fill:#DA3A37;}
	.st120{clip-path:url(#SVGID_12_);fill:#DC3A38;}
	.st121{clip-path:url(#SVGID_12_);fill:#DD3B39;}
	.st122{clip-path:url(#SVGID_12_);fill:#DC3C3A;}
	.st123{clip-path:url(#SVGID_12_);fill:#DD3D3B;}
	.st124{clip-path:url(#SVGID_12_);fill:#DF3F3D;}
	.st125{clip-path:url(#SVGID_12_);fill:#E0403E;}
	.st126{clip-path:url(#SVGID_12_);fill:#E04140;}
	.st127{clip-path:url(#SVGID_12_);fill:#E14241;}
	.st128{clip-path:url(#SVGID_12_);fill:#E14342;}
	.st129{clip-path:url(#SVGID_12_);fill:#E24443;}
	.st130{clip-path:url(#SVGID_12_);fill:#E34444;}
	.st131{clip-path:url(#SVGID_12_);fill:#E34645;}
	.st132{clip-path:url(#SVGID_12_);fill:#E34746;}
	.st133{clip-path:url(#SVGID_12_);fill:#E44847;}
	.st134{clip-path:url(#SVGID_12_);fill:#E54848;}
	.st135{clip-path:url(#SVGID_12_);fill:#E54949;}
	.st136{clip-path:url(#SVGID_12_);fill:#E64A4A;}
	.st137{clip-path:url(#SVGID_12_);fill:#E84B4B;}
</style>
<g>
	<g>
		<g>
			<g>
				<g>
					<defs>
						<path id="SVGID_1_" d="M32.7,23.5c-0.5-5.4-3-7.2-3-7.2c0.3,7.2-5.8,10.8-7.9,9.5c-2.9-1.9,0-4.9,0-4.9
							c2.7-3.3,3.4-4.6,3.5-7.9c0.2-5.8-5.9-9.9-6-9.9c0,0,0,0,0,0c0,5.7-2.9,7.6-5,9.5c-0.3,0.3-2.3,1.9-2.4,2
							C9,17,7.4,20.5,7.4,24.2c0,2.6,0.8,5.1,2.3,7.2c0.5,0.7,0.7,1,0.7,1c0-0.1-0.4-0.6-0.2-0.4c1,1.2,2.2,2.2,3.5,2.9
							c1.8,1.2,4,1.8,6.1,1.7h0.5c0.4,0,0.8,0,1.2-0.1c0.2-0.1,0.5-0.1,0.7-0.1c0,0,0.1,0,0.1,0c0.7-0.1,1.4-0.3,2-0.6
							c0,0,0.1,0,0.1,0c3.7-1.4,6.5-4.4,7.6-8.1c0.3-1.2,0.5-2.4,0.5-3.6C32.7,24,32.7,23.7,32.7,23.5z"/>
					</defs>
					<clipPath id="SVGID_2_">
						<use xlink:href="#SVGID_1_"  style="overflow:visible;"/>
					</clipPath>
					<rect x="7.3" y="29.8" class="st0" width="25.3" height="6.9"/>
					<rect x="7.3" y="28.7" class="st0" width="25.3" height="1.2"/>
					<rect x="7.3" y="27.5" class="st1" width="25.3" height="1.2"/>
					<rect x="7.3" y="26.3" class="st2" width="25.3" height="1.2"/>
					<rect x="7.3" y="25.2" class="st3" width="25.3" height="1.2"/>
					<rect x="7.3" y="24" class="st4" width="25.3" height="1.2"/>
					<rect x="7.3" y="22.8" class="st5" width="25.3" height="1.2"/>
					<rect x="7.3" y="21.7" class="st6" width="25.3" height="1.2"/>
					<rect x="7.3" y="20.5" class="st7" width="25.3" height="1.2"/>
					<rect x="7.3" y="19.3" class="st8" width="25.3" height="1.2"/>
					<rect x="7.3" y="18.2" class="st9" width="25.3" height="1.2"/>
					<rect x="7.3" y="17" class="st10" width="25.3" height="1.2"/>
					<rect x="7.3" y="15.8" class="st11" width="25.3" height="1.2"/>
					<rect x="7.3" y="14.7" class="st12" width="25.3" height="1.2"/>
					<rect x="7.3" y="13.5" class="st13" width="25.3" height="1.2"/>
					<rect x="7.3" y="12.3" class="st14" width="25.3" height="1.2"/>
					<rect x="7.3" y="11.2" class="st15" width="25.3" height="1.2"/>
					<rect x="7.3" y="10" class="st16" width="25.3" height="1.2"/>
					<rect x="7.3" y="8.8" class="st17" width="25.3" height="1.2"/>
					<rect x="7.3" y="7.7" class="st18" width="25.3" height="1.2"/>
					<rect x="7.3" y="6.5" class="st19" width="25.3" height="1.2"/>
					<rect x="7.3" y="5.3" class="st20" width="25.3" height="1.2"/>
					<rect x="7.3" y="4.2" class="st21" width="25.3" height="1.2"/>
					<rect x="7.3" y="3" class="st22" width="25.3" height="1.2"/>
				</g>
			</g>
		</g>
	</g>
	<g>
		<g>
			<defs>
				<path id="SVGID_3_" d="M18.2,3.8c0,0.3,0,0.6,0,0.8c-0.1,0.6-0.2,1.1-0.3,1.7c-0.3,1.1-0.9,2.1-1.6,3.1
					c-0.3,0.5-0.7,0.9-1.1,1.3c-0.1,0.1-0.2,0.2-0.3,0.3l-0.3,0.3c-0.1,0.1-0.2,0.2-0.3,0.3L14,11.8l-0.2,0.1l-1.3,0.9l-0.3,0.2
					c-0.1,0.1-0.2,0.2-0.3,0.2c-0.2,0.2-0.4,0.3-0.6,0.5c-0.7,0.6-1.4,1.3-2,2C8.8,16.4,8.3,17.2,8,18c-0.2,0.4-0.4,0.9-0.5,1.3
					s-0.3,1-0.4,1.5c-0.1,0.5-0.2,1-0.3,1.5c-0.1,0.5-0.2,1.1-0.4,1.6v0c0,0,0,0,0,0c0,0,0-0.1,0-0.1c-0.2-0.5-0.4-1-0.5-1.5
					c-0.1-0.5-0.3-1.1-0.3-1.6c-0.1-0.6-0.1-1.1-0.1-1.7c0-0.6,0.1-1.2,0.2-1.8c0.1-0.6,0.3-1.2,0.5-1.7C6.3,15,6.6,14.4,7,13.9
					c0.7-1,1.5-1.9,2.4-2.6c0.2-0.2,0.4-0.4,0.7-0.5c0.2-0.2,0.5-0.3,0.7-0.5c0.2-0.2,0.5-0.3,0.7-0.5c0.1-0.1,0.2-0.1,0.4-0.2
					l0.3-0.2c0.4-0.2,0.8-0.5,1.2-0.8s0.8-0.6,1.1-0.9c0.7-0.6,1.4-1.3,2-2.1C17.1,4.9,17.7,4,18.1,3c0,0,0,0,0,0c0,0,0,0,0,0
					C18.2,3.3,18.2,3.6,18.2,3.8z"/>
			</defs>
			<clipPath id="SVGID_4_">
				<use xlink:href="#SVGID_3_"  style="overflow:visible;"/>
			</clipPath>
			<rect x="5.4" y="3" class="st23" width="2.6" height="20.9"/>
			<rect x="8" y="3" class="st23" width="0.4" height="20.9"/>
			<rect x="8.4" y="3" class="st24" width="0.4" height="20.9"/>
			<rect x="8.9" y="3" class="st25" width="0.4" height="20.9"/>
			<rect x="9.3" y="3" class="st26" width="0.4" height="20.9"/>
			<rect x="9.8" y="3" class="st27" width="0.4" height="20.9"/>
			<rect x="10.2" y="3" class="st28" width="0.4" height="20.9"/>
			<rect x="10.7" y="3" class="st29" width="0.4" height="20.9"/>
			<rect x="11.1" y="3" class="st30" width="0.4" height="20.9"/>
			<rect x="11.5" y="3" class="st31" width="0.4" height="20.9"/>
			<rect x="12" y="3" class="st32" width="0.4" height="20.9"/>
			<rect x="12.4" y="3" class="st33" width="0.4" height="20.9"/>
			<rect x="12.9" y="3" class="st34" width="0.4" height="20.9"/>
			<rect x="13.3" y="3" class="st35" width="0.4" height="20.9"/>
			<rect x="13.8" y="3" class="st36" width="0.4" height="20.9"/>
			<rect x="14.2" y="3" class="st37" width="0.4" height="20.9"/>
			<rect x="14.7" y="3" class="st38" width="0.4" height="20.9"/>
			<rect x="15.1" y="3" class="st39" width="0.4" height="20.9"/>
			<rect x="15.5" y="3" class="st40" width="0.4" height="20.9"/>
			<rect x="16" y="3" class="st41" width="0.4" height="20.9"/>
			<rect x="16.4" y="3" class="st42" width="0.4" height="20.9"/>
			<rect x="16.9" y="3" class="st43" width="0.4" height="20.9"/>
			<rect x="17.3" y="3" class="st44" width="0.4" height="20.9"/>
			<rect x="17.8" y="3" class="st45" width="0.4" height="20.9"/>
			<rect x="18.2" y="3" class="st45" width="0" height="20.9"/>
		</g>
	</g>
	<g>
		<g>
			<defs>
				<ellipse id="SVGID_5_" cx="28.2" cy="12.4" rx="1.3" ry="1.3"/>
			</defs>
			<clipPath id="SVGID_6_">
				<use xlink:href="#SVGID_5_"  style="overflow:visible;"/>
			</clipPath>
			<rect x="26.9" y="11.1" class="st46" width="0.5" height="2.6"/>
			<rect x="27.5" y="11.1" class="st46" width="0.1" height="2.6"/>
			<rect x="27.5" y="11.1" class="st47" width="0.1" height="2.6"/>
			<rect x="27.6" y="11.1" class="st48" width="0.1" height="2.6"/>
			<rect x="27.7" y="11.1" class="st49" width="0.1" height="2.6"/>
			<rect x="27.8" y="11.1" class="st50" width="0.1" height="2.6"/>
			<rect x="27.9" y="11.1" class="st51" width="0.1" height="2.6"/>
			<rect x="28" y="11.1" class="st52" width="0.1" height="2.6"/>
			<rect x="28.1" y="11.1" class="st53" width="0.1" height="2.6"/>
			<rect x="28.2" y="11.1" class="st54" width="0.1" height="2.6"/>
			<rect x="28.3" y="11.1" class="st55" width="0.1" height="2.6"/>
			<rect x="28.4" y="11.1" class="st56" width="0.1" height="2.6"/>
			<rect x="28.5" y="11.1" class="st57" width="0.1" height="2.6"/>
			<rect x="28.5" y="11.1" class="st58" width="0.1" height="2.6"/>
			<rect x="28.6" y="11.1" class="st59" width="0.1" height="2.6"/>
			<rect x="28.7" y="11.1" class="st60" width="0.1" height="2.6"/>
			<rect x="28.8" y="11.1" class="st61" width="0.1" height="2.6"/>
			<rect x="28.9" y="11.1" class="st62" width="0.1" height="2.6"/>
			<rect x="29" y="11.1" class="st63" width="0.1" height="2.6"/>
			<rect x="29.1" y="11.1" class="st64" width="0.1" height="2.6"/>
			<rect x="29.2" y="11.1" class="st65" width="0.1" height="2.6"/>
			<rect x="29.3" y="11.1" class="st66" width="0.1" height="2.6"/>
			<rect x="29.4" y="11.1" class="st67" width="0.1" height="2.6"/>
			<rect x="29.5" y="11.1" class="st68" width="0.1" height="2.6"/>
			<path class="st68" d="M29.6,13.7v-2.6V13.7z"/>
		</g>
	</g>
	<g>
		<g>
			<defs>
				<path id="SVGID_7_" d="M27.8,12.4c0-0.6,0.4-1,0.9-1.2c-0.1-0.1-0.3-0.1-0.5-0.1c-0.7,0-1.3,0.6-1.3,1.3s0.6,1.3,1.3,1.3
					c0.2,0,0.3,0,0.5-0.1C28.2,13.5,27.8,13,27.8,12.4z"/>
			</defs>
			<clipPath id="SVGID_8_">
				<use xlink:href="#SVGID_7_"  style="overflow:visible;"/>
			</clipPath>
			<rect x="26.9" y="11.1" class="st69" width="1.8" height="0.5"/>
			<rect x="26.9" y="11.6" class="st69" width="1.8" height="0.1"/>
			<rect x="26.9" y="11.7" class="st70" width="1.8" height="0.1"/>
			<rect x="26.9" y="11.8" class="st71" width="1.8" height="0.1"/>
			<rect x="26.9" y="11.9" class="st72" width="1.8" height="0.1"/>
			<rect x="26.9" y="12" class="st73" width="1.8" height="0.1"/>
			<rect x="26.9" y="12.1" class="st74" width="1.8" height="0.1"/>
			<rect x="26.9" y="12.2" class="st75" width="1.8" height="0.1"/>
			<rect x="26.9" y="12.3" class="st76" width="1.8" height="0.1"/>
			<rect x="26.9" y="12.4" class="st77" width="1.8" height="0.1"/>
			<rect x="26.9" y="12.5" class="st78" width="1.8" height="0.1"/>
			<rect x="26.9" y="12.6" class="st79" width="1.8" height="0.1"/>
			<rect x="26.9" y="12.6" class="st80" width="1.8" height="0.1"/>
			<rect x="26.9" y="12.7" class="st81" width="1.8" height="0.1"/>
			<rect x="26.9" y="12.8" class="st82" width="1.8" height="0.1"/>
			<rect x="26.9" y="12.9" class="st83" width="1.8" height="0.1"/>
			<rect x="26.9" y="13" class="st84" width="1.8" height="0.1"/>
			<rect x="26.9" y="13.1" class="st85" width="1.8" height="0.1"/>
			<rect x="26.9" y="13.2" class="st86" width="1.8" height="0.1"/>
			<rect x="26.9" y="13.3" class="st87" width="1.8" height="0.1"/>
			<rect x="26.9" y="13.4" class="st88" width="1.8" height="0.1"/>
			<rect x="26.9" y="13.5" class="st89" width="1.8" height="0.1"/>
			<rect x="26.9" y="13.5" class="st90" width="1.8" height="0.1"/>
			<rect x="26.9" y="13.6" class="st91" width="1.8" height="0.1"/>
			<path class="st91" d="M26.9,13.7h1.8H26.9z"/>
		</g>
	</g>
	<g>
		<g>
			<defs>
				<path id="SVGID_9_" d="M25,29c-3.3,1.5-12.5-2.7-5.9-10.7c6.5-7.8,0.2-15.2,0.1-15.3c0.1,0.1,6.2,4.1,6,9.9
					c-0.1,3.2-0.8,4.6-3.5,7.9c0,0-2.9,3,0,4.9c2.1,1.4,8.1-2.3,7.9-9.5C31.9,22.2,28.6,27.4,25,29z"/>
			</defs>
			<clipPath id="SVGID_10_">
				<use xlink:href="#SVGID_9_"  style="overflow:visible;"/>
			</clipPath>
			<rect x="12.5" y="3" class="st92" width="19.4" height="5.4"/>
			<rect x="12.5" y="8.4" class="st92" width="19.4" height="0.9"/>
			<rect x="12.5" y="9.3" class="st93" width="19.4" height="0.9"/>
			<rect x="12.5" y="10.2" class="st94" width="19.4" height="0.9"/>
			<rect x="12.5" y="11.1" class="st95" width="19.4" height="0.9"/>
			<rect x="12.5" y="12" class="st96" width="19.4" height="0.9"/>
			<rect x="12.5" y="12.9" class="st97" width="19.4" height="0.9"/>
			<rect x="12.5" y="13.9" class="st98" width="19.4" height="0.9"/>
			<rect x="12.5" y="14.8" class="st99" width="19.4" height="0.9"/>
			<rect x="12.5" y="15.7" class="st100" width="19.4" height="0.9"/>
			<rect x="12.5" y="16.6" class="st101" width="19.4" height="0.9"/>
			<rect x="12.5" y="17.5" class="st102" width="19.4" height="0.9"/>
			<rect x="12.5" y="18.4" class="st103" width="19.4" height="0.9"/>
			<rect x="12.5" y="19.3" class="st104" width="19.4" height="0.9"/>
			<rect x="12.5" y="20.2" class="st105" width="19.4" height="0.9"/>
			<rect x="12.5" y="21.1" class="st106" width="19.4" height="0.9"/>
			<rect x="12.5" y="22" class="st107" width="19.4" height="0.9"/>
			<rect x="12.5" y="23" class="st108" width="19.4" height="0.9"/>
			<rect x="12.5" y="23.9" class="st109" width="19.4" height="0.9"/>
			<rect x="12.5" y="24.8" class="st110" width="19.4" height="0.9"/>
			<rect x="12.5" y="25.7" class="st111" width="19.4" height="0.9"/>
			<rect x="12.5" y="26.6" class="st112" width="19.4" height="0.9"/>
			<rect x="12.5" y="27.5" class="st113" width="19.4" height="0.9"/>
			<rect x="12.5" y="28.4" class="st114" width="19.4" height="0.9"/>
			<rect x="12.5" y="29.3" class="st114" width="19.4" height="1.2"/>
		</g>
	</g>
	<g>
		<g>
			<defs>
				<path id="SVGID_11_" d="M18.2,3.8c0,0.3,0,0.6,0,0.8c-0.1,0.6-0.2,1.1-0.3,1.7c-0.3,1.1-0.9,2.1-1.6,3.1
					c-0.3,0.5-0.7,0.9-1.1,1.3c-0.1,0.1-0.2,0.2-0.3,0.3l-0.3,0.3c-0.1,0.1-0.2,0.2-0.3,0.3L14,11.8l-0.2,0.1l-1.3,0.9l-0.3,0.2
					c-0.1,0.1-0.2,0.2-0.3,0.2c-0.2,0.2-0.4,0.3-0.6,0.5c-0.7,0.6-1.4,1.3-2,2C8.8,16.4,8.3,17.2,8,18c-0.2,0.4-0.4,0.9-0.5,1.3
					s-0.3,1-0.4,1.5c-0.1,0.5-0.2,1-0.3,1.5c-0.1,0.5-0.2,1.1-0.4,1.6v0c0,0,0,0,0,0c0,0,0-0.1,0-0.1c-0.7-6.3,2.8-10.4,7-12.9
					c4.4-2.6,4.8-8,4.8-8l0,0C18.2,3.3,18.2,3.6,18.2,3.8z"/>
			</defs>
			<clipPath id="SVGID_12_">
				<use xlink:href="#SVGID_11_"  style="overflow:visible;"/>
			</clipPath>
			<rect x="5.6" y="3" class="st115" width="12.6" height="4.3"/>
			<rect x="5.6" y="7.3" class="st115" width="12.6" height="0.7"/>
			<rect x="5.6" y="8" class="st116" width="12.6" height="0.7"/>
			<rect x="5.6" y="8.7" class="st117" width="12.6" height="0.7"/>
			<rect x="5.6" y="9.5" class="st118" width="12.6" height="0.7"/>
			<rect x="5.6" y="10.2" class="st119" width="12.6" height="0.7"/>
			<rect x="5.6" y="10.9" class="st120" width="12.6" height="0.7"/>
			<rect x="5.6" y="11.6" class="st121" width="12.6" height="0.7"/>
			<rect x="5.6" y="12.3" class="st122" width="12.6" height="0.7"/>
			<rect x="5.6" y="13.1" class="st123" width="12.6" height="0.7"/>
			<rect x="5.6" y="13.8" class="st124" width="12.6" height="0.7"/>
			<rect x="5.6" y="14.5" class="st125" width="12.6" height="0.7"/>
			<rect x="5.6" y="15.2" class="st126" width="12.6" height="0.7"/>
			<rect x="5.6" y="16" class="st127" width="12.6" height="0.7"/>
			<rect x="5.6" y="16.7" class="st128" width="12.6" height="0.7"/>
			<rect x="5.6" y="17.4" class="st129" width="12.6" height="0.7"/>
			<rect x="5.6" y="18.1" class="st130" width="12.6" height="0.7"/>
			<rect x="5.6" y="18.9" class="st131" width="12.6" height="0.7"/>
			<rect x="5.6" y="19.6" class="st132" width="12.6" height="0.7"/>
			<rect x="5.6" y="20.3" class="st133" width="12.6" height="0.7"/>
			<rect x="5.6" y="21" class="st134" width="12.6" height="0.7"/>
			<rect x="5.6" y="21.8" class="st135" width="12.6" height="0.7"/>
			<rect x="5.6" y="22.5" class="st136" width="12.6" height="0.7"/>
			<rect x="5.6" y="23.2" class="st137" width="12.6" height="0.7"/>
			<path class="st137" d="M5.6,23.9h12.6H5.6z"/>
		</g>
	</g>
</g>
</svg>
